<svg width="512" height="512" viewBox="0 0 512 512" fill="none" xmlns="http://www.w3.org/2000/svg">
<path fill-rule="evenodd" clip-rule="evenodd" d="M151.676 381.831L263.688 449.236L399.76 381.831H352.358L406.845 112.337H292.494L298.4 83.1162H156.738L100.703 360.264H215.335L210.974 381.831H151.676ZM177.423 316.277C193.181 331.904 215.82 340.163 242.896 340.163C280.454 340.163 308.317 329.765 333.241 306.454L334.733 305.057L296.097 270.028L294.788 271.311C285.822 280.106 270.756 290.594 249.891 290.594C238.625 290.594 229.427 287.239 223.295 280.893C217.29 274.683 214.246 265.791 214.439 255.097H346.363L348.054 245.545L349.744 235.993C355.303 206.21 349.828 179.726 334.327 161.422C319.876 144.359 297.533 135.341 269.715 135.341C198.415 135.341 154.28 197.51 154.28 255.094C154.08 279.91 162.082 301.068 177.423 316.277Z" fill="#FFD630"/>
<path d="M221.638 216.21H293.339C295.083 204.705 293.355 195.542 288.304 189.64C283.667 184.222 276.236 181.475 266.217 181.475C241.777 181.475 226.477 198.559 221.638 216.21Z" fill="#FFD630"/>
</svg>
